# xmcd
#
# Track frame offsets:
#	150
#	17287
#	37002
#	52886
#	72039
#	89346
#	106060
#	121869
#	137665
#	152486
#	165429
#	180612
#	195638
#	210408
#
# Disc length: 3014 seconds
#
# Revision: 1
# Processed by: cddbd v1.5.2PL0 Copyright (c) Steve Scherf et al.
# Submitted via: audiograbber 1.83.01
#
DISCID=a40bc40e
DTITLE=Walkyria Santos - Do Mesmo Jeito
DYEAR=1900
DGENRE=Forro
TTITLE0=01. Do Mesmo Jeito
TTITLE1=02. Amantes
TTITLE2=03. Eu Te Amo Tanto
TTITLE3=04. Eu Menti
TTITLE4=05. Noite Caliente
TTITLE5=06. Fantasias de Amor
TTITLE6=07. Gamada
TTITLE7=08. Mais Uma Vez
TTITLE8=09. Perdoa-me
TTITLE9=10. Passarinho
TTITLE10=11. Mensageiro Beija-Flor
TTITLE11=12. Fogo da Paixao
TTITLE12=13. Bem Sei
TTITLE13=14. Te Amo
EXTD=
EXTT0=
EXTT1=
EXTT2=
EXTT3=
EXTT4=
EXTT5=
EXTT6=
EXTT7=
EXTT8=
EXTT9=
EXTT10=
EXTT11=
EXTT12=
EXTT13=
PLAYORDER=
